<svg width="510" height="486" viewBox="0 0 510 486" fill="none" xmlns="http://www.w3.org/2000/svg">
<path d="M279.61 6.81853C258.574 -0.555678 236.899 -0.734353 215.66 2.55864C186.748 7.03922 161.311 20.4565 141.112 41.861C107.761 77.1976 96.4706 119.642 105.575 167.545C96.1518 169.885 88.8581 171.686 81.568 173.504C34.3906 185.26 -20.3637 237.272 7.60058 321.052C35.5649 404.833 154.734 364.842 154.734 364.842C154.734 364.842 144.224 436.658 198.524 466.435C252.823 496.212 293.003 487.918 344.027 463.319C394.508 438.982 415.376 393.746 418.34 341.219C419.681 317.439 424.428 304.404 447.381 293.996C498.612 270.763 532.13 209.657 492.737 143.769C459.043 94.689 413.554 82.5365 357.798 103.272C350.672 80.7709 343.554 60.5084 329.744 43.4233C316.225 26.6991 300.146 14.0141 279.61 6.81853Z" fill="#F8C13A"/>
</svg>
